<mxfile host="app.diagrams.net" modified="2023-06-18T11:33:19.101Z" agent="Mozilla/5.0 (Windows NT 10.0; Win64; x64) AppleWebKit/537.36 (KHTML, like Gecko) Chrome/114.0.0.0 Safari/537.36" version="21.4.0" etag="YcZXOjrxrOXLb-AxQAOP" type="github">
  <diagram name="Page-1" id="lqe-xQSppoiMWU-HnDxV">
    <mxGraphModel>
      <root>
        <mxCell id="0" />
        <mxCell id="1" parent="0" />
      </root>
    </mxGraphModel>
  </diagram>
</mxfile>
